<?xml version="1.0" encoding="UTF-8"?>
<svg width="18px" height="18px" viewBox="0 0 18 18" version="1.1" xmlns="http://www.w3.org/2000/svg" xmlns:xlink="http://www.w3.org/1999/xlink">
    <!-- Generator: Sketch 63.1 (92452) - https://sketch.com -->
    <title>ic_huaweiid_list_me</title>
    <desc>Created with Sketch.</desc>
    <defs>
        <path d="M9.375,3.75389408 C9.375,2.30170673 8.19954826,1.125 6.75010954,1.125 C5.30047544,1.125 4.125,2.30168297 4.125,3.75389408 C4.125,5.20610519 5.30047544,6.38278816 6.75010954,6.38278816 C8.19954826,6.38278816 9.375,5.20608143 9.375,3.75389408 Z M10.5,3.75389408 C10.5,5.8271332 8.8211375,7.50778816 6.75010954,7.50778816 C4.6788625,7.50778816 3,5.8271332 3,3.75389408 C3,1.68065496 4.6788625,3.37507799e-14 6.75010954,3.37507799e-14 C8.8211375,3.37507799e-14 10.5,1.68065496 10.5,3.75389408 Z M12.375,15.1875 L12.375,12.75 L12.375,12.75 C12.375,10.886039 10.863961,9.375 9,9.375 L4.5,9.375 C2.63603897,9.375 1.125,10.886039 1.125,12.75 L1.125,15.1875 C1.125,15.4981602 0.873160172,15.75 0.5625,15.75 C0.251839828,15.75 3.80448985e-17,15.4981602 0,15.1875 L0,12.75 L0,12.75 C0,10.2647186 2.01471863,8.25 4.5,8.25 L9,8.25 C11.4852814,8.25 13.5,10.2647186 13.5,12.75 L13.5,15.1875 C13.5,15.4981602 13.2481602,15.75 12.9375,15.75 C12.6268398,15.75 12.375,15.4981602 12.375,15.1875 Z" id="path-1"></path>
    </defs>
    <g id="ic_huaweiid_list_me" stroke="none" stroke-width="1" fill="none" fill-rule="evenodd">
        <g id="public/ic_me">
            <g id="symbol/frame/symbol_grid24"></g>
            <g id="me" transform="translate(2.250000, 0.750000)">
                <mask id="mask-2" fill="white">
                    <use xlink:href="#path-1"></use>
                </mask>
                <use id="Combined-Shape" fill="#000000" fill-rule="nonzero" xlink:href="#path-1"></use>
            </g>
        </g>
    </g>
</svg>